<?xml version="1.0" standalone="no"?>
<!DOCTYPE svg PUBLIC "-//W3C//DTD SVG 20010904//EN"
 "http://www.w3.org/TR/2001/REC-SVG-20010904/DTD/svg10.dtd">
<svg version="1.0" xmlns="http://www.w3.org/2000/svg"
 width="700.000000pt" height="700.000000pt" viewBox="0 0 700.000000 700.000000"
 preserveAspectRatio="xMidYMid meet">
<metadata>
Created by potrace 1.11, written by Peter Selinger 2001-2013
</metadata>
<g transform="translate(0.000000,700.000000) scale(0.100000,-0.100000)"
fill="#000000" stroke="none">
<path d="M479 6526 c-1 0 -3 -680 -4 -1511 l-1 -1510 510 -512 c280 -282 511
-511 513 -509 4 4 8 23 18 101 14 107 16 121 20 145 3 14 7 45 10 70 3 25 7
56 10 70 3 14 7 45 10 70 3 25 7 56 10 70 3 14 7 43 10 65 2 22 6 54 9 70 3
17 10 66 16 111 6 44 12 89 14 100 2 10 7 42 10 69 8 66 18 136 21 155 2 8 6
40 10 70 4 30 9 64 11 75 2 11 9 59 15 108 11 80 13 87 31 81 11 -3 169 -80
352 -171 182 -91 459 -228 616 -305 157 -77 302 -149 322 -159 l37 -19 -4 98
c-2 53 -7 158 -10 232 -3 74 -8 191 -10 260 -4 118 -10 289 -20 515 -2 55 -7
168 -10 250 -3 83 -7 202 -10 265 -10 244 -16 418 -20 498 -2 68 0 82 11 78 7
-3 157 -101 331 -219 874 -587 1263 -847 1270 -847 4 0 57 75 116 166 60 91
174 265 255 387 81 122 155 234 164 249 l18 27 -78 42 c-42 23 -99 54 -127 69
-281 151 -305 165 -288 172 10 4 162 62 338 128 176 67 383 145 460 174 77 30
214 81 305 115 91 35 187 71 214 82 26 10 51 17 55 15 7 -4 6 -1315 -1 -1321
-2 -2 -102 55 -222 125 l-220 129 -55 -87 c-50 -78 -531 -832 -686 -1076 -33
-52 -63 -98 -67 -101 -3 -4 -108 60 -232 142 -124 81 -264 173 -311 203 -111
72 -653 427 -684 448 l-24 16 8 -144 c4 -80 8 -174 10 -210 2 -36 6 -114 9
-175 13 -217 16 -271 21 -375 3 -58 7 -136 10 -175 2 -38 6 -126 10 -195 3
-69 8 -161 10 -205 3 -44 7 -125 10 -180 3 -55 7 -136 10 -180 14 -266 15
-315 8 -314 -4 0 -332 161 -728 358 -588 292 -721 355 -726 342 -4 -9 -9 -41
-13 -71 -4 -30 -11 -82 -16 -115 -5 -33 -12 -87 -15 -120 -4 -33 -8 -67 -10
-75 -2 -8 -7 -35 -10 -60 -3 -25 -8 -56 -10 -70 -2 -14 -7 -52 -11 -85 -3 -33
-8 -67 -9 -75 -3 -14 -19 -126 -30 -207 -3 -18 -8 -57 -11 -85 -4 -29 -8 -55
-9 -58 -4 -6 87 -101 492 -517 139 -143 287 -296 330 -340 43 -45 191 -198
329 -340 138 -142 267 -275 286 -295 20 -21 39 -38 44 -38 4 0 686 678 1515
1507 l1507 1507 0 1512 0 1512 -3019 0 c-1660 0 -3020 -1 -3020 -2z"/>
</g>
</svg>
